<?xml version="1.0" encoding="UTF-8" standalone="no"?>
<!-- Created with Inkscape (http://www.inkscape.org/) -->

<svg
   width="43mm"
   height="43mm"
   viewBox="0 0 43 43"
   version="1.1"
   id="svg1"
   xml:space="preserve"
   inkscape:version="1.4.2 (ebf0e940d0, 2025-05-08)"
   sodipodi:docname="disegno.svg"
   xmlns:inkscape="http://www.inkscape.org/namespaces/inkscape"
   xmlns:sodipodi="http://sodipodi.sourceforge.net/DTD/sodipodi-0.dtd"
   xmlns="http://www.w3.org/2000/svg"
   xmlns:svg="http://www.w3.org/2000/svg"><sodipodi:namedview
     id="namedview1"
     pagecolor="#ffffff"
     bordercolor="#000000"
     borderopacity="0.25"
     inkscape:showpageshadow="2"
     inkscape:pageopacity="0.0"
     inkscape:pagecheckerboard="0"
     inkscape:deskcolor="#d1d1d1"
     inkscape:document-units="mm"
     inkscape:zoom="1.0333895"
     inkscape:cx="867.04969"
     inkscape:cy="174.18409"
     inkscape:window-width="3440"
     inkscape:window-height="1371"
     inkscape:window-x="0"
     inkscape:window-y="32"
     inkscape:window-maximized="1"
     inkscape:current-layer="layer1" /><defs
     id="defs1" /><g
     inkscape:label="Livello 1"
     inkscape:groupmode="layer"
     id="layer1"><path
       style="fill:#000000"
       d="m 21.46059,42.736846 1.32292,0.0145 1.99025,-0.35512 1.99025,-0.35512 1.84621,-0.72926 1.8462,-0.72925 1.74434,-1.14801 1.74433,-1.14801 1.5333,-1.52869 1.5333,-1.5287 1.27142,-1.92919 1.27143,-1.929201 0.81482,-2.11288 0.81481,-2.11289 0.43417,-2.80668 0.43416,-2.80669 -0.45887,-3.07311 -0.45886,-3.07311 -0.67925,-1.71979 -0.67925,-1.71979 -1.06668,-1.852091 -1.06669,-1.8520797 -1.87345,-1.94124 -1.87344,-1.94125 -1.71979,-1.13412 -1.7198,-1.13412 -1.2904,-0.56266 -1.2904,-0.56265001 h -0.25537 -0.25536 l -0.64337,-0.50608 -0.64337,-0.50607 -3.89628,0.0729 -3.89628,0.0729 -1.85208,0.5607 -1.85209,0.56071001 -2.17433,1.07169 -2.17433,1.07168 -2.2553804,2.13491 -2.25538,2.13491 -1.19926,1.92413 -1.19926,1.9241407 -0.63587,1.62254 -0.63587,1.62254 -0.41589,2.01102 -0.4158801,2.01102 v 2.60024 2.60023 l 0.3821801,1.80324 0.38219,1.80323 0.41174,1.15824 0.41173,1.15824 0.77694,1.5289 0.77693,1.528901 1.21382,1.59607 1.21382,1.59607 1.55709,1.40533 1.5570997,1.40534 1.4714407,0.88757 1.47145,0.88758 1.56042,0.63028 1.56043,0.63028 2.08521,0.37663 2.08521,0.37663 z m -0.34987,-0.79378 -0.97305,-0.033 -1.32291,-0.19897 -1.32292,-0.19897 -1.16944,-0.31949 -1.16944,-0.3195 -1.94251,-0.94766 -1.9425,-0.94767 -1.8179504,-1.53026 -1.81796,-1.53027 -1.33796,-1.78658 -1.33796,-1.78658 -0.78506,-1.610121 -0.78506,-1.61012 -0.62,-1.97442 -0.61999,-1.97442 0.003,-3.83645 0.003,-3.83646 0.46275,-1.71979 0.46275,-1.7198 0.92628,-1.89494 0.92629,-1.894941 1.46784,-1.8759597 1.46783,-1.87596 1.6341497,-1.32225 1.6341507,-1.32225 1.8076,-0.94987 1.8076,-0.94986 1.7682,-0.51689 1.7682,-0.51689001 2.77813,-0.13771 2.77812,-0.13771 0.33566,0.23399 0.33566,0.23398001 -0.46426,1.25264 -0.46426,1.25264 -0.53286,-0.16643 -0.53286,-0.16643 -1.21828,-0.14265 -1.21827,-0.14264 -1.48596,0.43198 -1.48595,0.43198 -0.93782,0.96563 -0.93781,0.96564 -0.20657,0.79716 -0.20656,0.79717 -1.07652,0.35883 -1.07651,0.35884 -1.13008,0.96731 -1.13009,0.9673097 -0.4874107,1.073101 -0.4874197,1.0731 -0.006,0.5979 -0.006,0.59791 -0.52917,0.45308 -0.52916,0.45309 v 1.64179 1.64178 l 0.70279,0.55282 0.7027897,0.55281 1.1231007,5.48566 1.12309,5.48566 0.82193,3.566511 0.82193,3.56651 0.49248,0.49248 0.49248,0.49248 1.55606,0.52574 1.55605,0.52574 2.64584,0.14183 2.64583,0.14182 1.5875,-0.29615 1.5875,-0.29615 1.45521,-0.72624 1.45521,-0.72624 0.59477,-2.64583 0.59476,-2.645831 1.02735,-4.7625 1.02735,-4.7625 0.32679,-1.78977 0.3268,-1.78977 0.76307,-0.54335 0.76307,-0.54335 v -1.52848 -1.52848 l -0.50058,-0.45301 -0.50057,-0.45301 -0.17352,-1.38886 -0.17353,-1.38885 -0.62728,-1.3539307 -0.62729,-1.35393 -0.68299,-0.44752 -0.68299,-0.44751 v -0.3717 -0.37171 l -0.67747,-1.07318 -0.67747,-1.07318 -1.10847,-0.50325 -1.10847,-0.50325 -0.59531,-0.006 -0.59531,-0.006 v -0.14543 -0.14543 l 0.39447,-0.76283 0.39447,-0.76283 0.77506,0.22228 0.77505,0.22228 1.2851,0.64547 1.28511,0.64547 1.08111,0.68248 1.08111,0.68247 1.60596,1.48684 1.60597,1.48685 0.99905,1.50513 0.99904,1.5051307 0.84042,1.72387 0.84042,1.72387 0.41994,1.47109 0.41994,1.47109 0.24017,2.14671 0.24017,2.1467 -0.2406,2.39876 -0.24061,2.39876 -0.63269,1.87009 -0.6327,1.87008 -1.14559,2.03524 -1.14558,2.035231 -2.26465,2.24896 -2.26464,2.24896 -1.5079,0.89355 -1.50791,0.89354 -1.67418,0.6077 -1.67418,0.60769 -2.04689,0.2847 -2.0469,0.2847 z m 0.87904,-4.02919 -3.43959,0.0882 -1.45168,-0.40487 -1.45169,-0.40486 -0.54696,-0.35838 -0.54695,-0.35838 -0.33593,-1.41695 -0.33594,-1.41696 -0.88643,-4.101501 -0.88642,-4.1015 -0.54931,-2.74011 -0.54931,-2.74011 v -0.39659 -0.3966 l 0.46302,0.19564 0.46302,0.19564 2.20974,0.47667 2.20974,0.47667 2.94963,0.18095 2.94964,0.18094 2.77813,-0.3024 2.77812,-0.30239 1.98438,-0.49746 1.98437,-0.49745 0.0641,0.0611 0.0642,0.0611 -0.7867,3.94871 -0.78669,3.9487 -0.53716,2.38125 -0.53716,2.381251 -0.39397,1.80339 -0.39397,1.8034 -0.28316,0.52909 -0.28316,0.52909 -1.23816,0.55325 -1.23816,0.55324 z m -0.71248,-2.83467 0.34586,0.0177 1.16001,-0.2921 1.16001,-0.29209 1.05301,-0.90133 1.053,-0.90134 0.44057,-1.153621 0.44058,-1.15362 -0.089,-0.62951 -0.089,-0.62952 -0.52917,0.0425 -0.52917,0.0425 -1.4552,0.41743 -1.45521,0.41743 -1.4637,0.003 -1.46369,0.003 -1.44672,-0.41319 -1.44673,-0.41319 -0.52916,-0.0498 -0.52917,-0.0498 -0.0847,0.73799 -0.0847,0.73799 0.57482,1.18743 0.57483,1.187441 0.89149,0.67997 0.8915,0.67998 1.13194,0.35346 1.13194,0.35347 z m 0.078,-1.04162 -1.48223,-9.9e-4 -0.82925,-0.50565 -0.82925,-0.50566 -0.6921,-0.90739 -0.69211,-0.907401 v -0.55428 -0.55427 l 1.20423,0.41032 1.20422,0.41032 2.69838,-0.13346 2.69838,-0.13345 0.59531,-0.1915 0.59532,-0.19149 v 0.38861 0.3886 l -0.60161,0.892731 -0.60161,0.89273 -0.89273,0.60161 -0.89273,0.60161 z M 16.0724,27.953155 h 0.30039 l 0.61302,-0.66146 0.61302,-0.66146 h 0.5357 0.5357 l 0.4334,0.66146 0.43341,0.66146 h 0.36644 0.36645 v -0.3608 -0.36079 l -0.69754,-0.69754 -0.69754,-0.69754 h -0.85388 -0.85389 l -0.69753,0.69754 -0.69754,0.69754 v 0.36079 0.3608 z m 6.69324,0 h 0.37904 l 0.16776,-0.52855 0.16775,-0.52855 0.66105,-0.16592 0.66104,-0.16591 0.72486,0.69447 0.72487,0.69446 h 0.31625 0.31625 v -0.28494 -0.28493 l -0.7734,-0.7734 -0.7734,-0.7734 h -0.82613 -0.82612 l -0.64944,0.64943 -0.64943,0.64944 v 0.4089 0.4089 z m 0.15012,-8.11037 -3.04271,0.13256 -2.11667,-0.22247 -2.11666,-0.22246 -1.85209,-0.43007 -1.85208,-0.43007 -1.38906,-0.63559 -1.3890604,-0.63559 v -1.08412 -1.08413 l 1.1244704,0.65602 1.12448,0.65601 2.24896,0.61191 2.24896,0.61191 5.42396,-0.0148 5.42396,-0.0148 1.98437,-0.55692 1.98438,-0.55692 1.32291,-0.60741 1.32292,-0.60741 0.19844,-0.0997 0.19844,-0.0997 v 0.93008 0.93007 l -0.72761,0.50995 -0.7276,0.50995 -1.32292,0.42847 -1.32292,0.42847 -1.85208,0.38209 -1.85208,0.38208 z m -2.43178,-2.74916 -3.09324,0.0116 -0.15102,-0.24435 -0.15102,-0.24435 0.73072,-0.51134 0.73071,-0.51133 2.64584,-1.35352 2.64583,-1.35352 0.99987,-0.8268 0.99986,-0.82681 0.52149,-1.022201 0.52149,-1.0221997 v -1.4861 -1.4861 l -0.78375,-0.78375 -0.78375,-0.78375 0.68449,-0.26024 0.68449,-0.26024 0.95566,0.46903 0.95567,0.46903 0.5855,0.87928 0.5855,0.87928 0.18594,1.23739 0.18595,1.23738 -0.28812,1.3754907 -0.28811,1.37548 -0.89791,1.40264 -0.89791,1.40264 -1.08953,0.75406 -1.08952,0.75405 -1.00594,0.35881 -1.00595,0.35882 z m -3.59258,-1.21467 -0.9871,0.87982 -1.71979,-0.38082 -1.71979,-0.38082 -0.35079,-0.33535 -0.3508,-0.33536 0.29008,-1.07726 0.29008,-1.07727 1.20541,-1.06104 1.2054,-1.06104 2.1626,-0.713001 2.1626,-0.7129997 0.95891,-0.48102 0.9589,-0.48102 0.69474,-0.82565 0.69474,-0.82565 v -0.33557 -0.33557 l 0.48386,-0.43788 0.48385,-0.43788 h 0.72417 0.72416 l 0.50245,0.2689 0.50244,0.2689 0.31168,1.04028 0.31168,1.04029 -0.70576,1.44252 -0.70576,1.4425207 -0.95367,0.72739 -0.95366,0.7274 -2.61677,1.28868 -2.61676,1.28869 z m 10.1254,0.87488 -0.52917,0.12857 1.38428,-1.27765 1.38428,-1.27764 0.70675,-1.442 0.70675,-1.44199 0.16273,-1.4684207 0.16273,-1.46843 0.49023,0.73001 0.49022,0.73001 0.35326,0.9897807 0.35326,0.98979 0.0116,1.1365 0.0116,1.13651 -0.63325,0.63325 -0.63324,0.63324 -1.94644,0.56995 -1.94644,0.56995 z m -16.141,-1.50068 h -0.33066 l -0.33057,-0.39831 -0.3305707,-0.39831 0.1795507,-1.12304 0.17955,-1.12305 0.63106,-1.0769 0.63106,-1.076901 1.0733,-0.7437997 1.0733,-0.7438 1.52311,-0.16367 1.52312,-0.16368 -0.58551,-0.41492 -0.58552,-0.41492 0.45323,-0.90272 0.45322,-0.90272 0.89986,-0.60115 0.89985,-0.60115 1.04817,-0.28225 1.04817,-0.28224 0.9678,0.16351 0.9678,0.16351 0.39147,0.24413 0.39146,0.24413 -0.57436,0.40466 -0.57436,0.40466 -0.1661,0.75624 -0.1661,0.75624 -0.71475,0.66843 -0.71475,0.66844 -0.79375,0.39396 -0.79375,0.39396 -1.57953,0.4543 -1.57954,0.4542997 -0.95205,0.4857 -0.95206,0.485711 -0.97048,1.07421 -0.97049,1.07421 -0.16976,1.06162 -0.16976,1.06161 z m 13.73643,-11.1345507 -0.10897,0.11024 v -0.40149 -0.40149 l 0.30297,-0.89937 0.30297,-0.89938 0.2639,-0.33713 0.2639,-0.33712001 0.0883,0.0883 0.0883,0.0883 -0.54621,1.43944 -0.54622,1.43944 z"
       id="path36870"
       sodipodi:nodetypes="ccccccccccccccccccccccccccccccccccccccccccccccccccccccccccccccccccccccccccccccccccccccccccccccccccccccccccccccccccccccccccccccccccccccccccccccccccccccccccccccccccccccccccccccccccccccccccccccccccccccccccccccccccccccccccccccccccccccccccccccccccccccccccccccccccccccccccccccccccccccccccccccccccccccccccccccccccccccccccccccccccccccccccccccccccccccccccccccccccccccccccccccccccccccccccccccccccccccccccccccccccccccccccccccccccccccccccccccccccccccccccccccccccccccccccccccccccccccccccccccccccccccccccccccccccccc" /><path
       style="fill:#000000;stroke-width:0.256034"
       d="M 17.541481,41.362286 C 15.008241,40.79144 11.720738,39.140358 9.6160773,37.381913 6.5025403,34.780551 4.4578773,31.653065 2.9416005,27.17273 2.2743531,25.201129 2.210488,24.697455 2.210488,21.406811 c 0,-2.832738 0.111035,-4.006294 0.5180039,-5.474891 C 4.2440702,10.462774 8.2713618,5.4526132 13.109128,3.0178671 15.763309,1.6820758 17.875848,1.1281389 21.09279,0.92444144 24.359892,0.71756903 24.544219,0.81640678 23.875617,2.4165988 23.493453,3.3312449 23.478707,3.3383278 22.259478,3.1928414 21.582727,3.1120854 20.870585,2.9962771 20.676942,2.9354864 20.483299,2.8746984 19.619183,3.0162324 18.756683,3.2500072 16.879351,3.7588512 15.146661,5.236954 14.902625,6.5377805 14.771177,7.2384528 14.58517,7.4122787 13.675054,7.6849557 11.50972,8.333706 9.4006749,10.743709 9.3850751,12.587114 c -0.0031,0.365426 -0.2360533,0.87295 -0.5176917,1.127828 -0.4199228,0.380024 -0.5120693,0.788578 -0.5120693,2.270366 0,1.626878 0.064754,1.858939 0.6497876,2.328638 0.5833136,0.468315 0.7907016,1.202703 2.0272083,7.178582 1.974107,9.540613 2.388955,11.174246 3.00382,11.828743 0.840841,0.895032 3.347281,1.59176 6.395112,1.777688 3.229078,0.196979 5.300498,-0.137671 7.394228,-1.194581 l 1.440162,-0.726993 1.453684,-6.610532 c 0.799523,-3.635793 1.675604,-7.759901 1.946844,-9.164683 0.434292,-2.24927 0.586994,-2.631297 1.279242,-3.200431 0.717211,-0.589659 0.785878,-0.779423 0.783772,-2.165985 -0.0019,-1.18517 -0.11965,-1.644611 -0.535363,-2.087118 C 33.892789,13.628215 33.6046,12.896605 33.531755,12.26791 33.322993,10.466242 32.233614,8.1042038 31.378457,7.5990507 30.966979,7.355986 30.630315,6.982516 30.630315,6.769119 c 0,-0.2133971 -0.292764,-0.8875554 -0.650584,-1.4981317 -0.675113,-1.1519958 -2.010013,-1.9254417 -3.323132,-1.9254417 -0.730107,0 -0.734885,-0.012515 -0.337772,-0.8840734 0.380016,-0.8340487 0.755687,-0.8198485 2.704811,0.1022429 4.502404,2.129999 7.810588,5.4989571 9.898298,10.0801409 1.608214,3.528994 1.797111,4.484161 1.781456,9.008155 -0.0132,3.816892 -0.06234,4.227642 -0.719749,6.01681 -1.360948,3.703897 -2.720086,5.82205 -5.437198,8.473607 -2.774212,2.70728 -4.321223,3.698097 -7.370053,4.720301 -2.585178,0.866751 -6.991554,1.095214 -9.634911,0.499557 z"
       id="path36871" /></g></svg>
